<?xml version="1.0" standalone="no"?>
<!DOCTYPE svg PUBLIC "-//W3C//DTD SVG 20010904//EN"
 "http://www.w3.org/TR/2001/REC-SVG-20010904/DTD/svg10.dtd">
<svg version="1.0" xmlns="http://www.w3.org/2000/svg"
 width="1024.000000pt" height="1024.000000pt" viewBox="0 0 1024.000000 1024.000000"
 preserveAspectRatio="xMidYMid meet">
<metadata>
Created by potrace 1.14, written by Peter Selinger 2001-2017
</metadata>
<g transform="translate(0.000000,1024.000000) scale(0.100000,-0.100000)"
fill="#000000" stroke="none">
<path d="M1149 8010 c0 -60 -1 -4332 0 -4345 1 -7 168 -10 494 -9 270 1 495 2
500 3 4 0 7 613 7 1361 0 748 3 1360 8 1360 4 0 33 -42 65 -93 32 -50 95 -149
140 -220 45 -70 232 -362 416 -650 184 -287 358 -558 386 -602 95 -147 226
-351 529 -825 l215 -335 500 0 501 0 1 50 c0 63 0 4326 0 4340 -1 7 -174 10
-501 10 l-500 0 0 -1362 c0 -750 -3 -1363 -7 -1363 -5 0 -38 46 -74 103 -149
231 -709 1105 -769 1201 -36 56 -90 140 -119 187 -89 137 -191 297 -471 734
-95 149 -196 306 -224 350 -29 44 -61 95 -71 113 -11 17 -24 33 -30 33 -5 1
-232 2 -502 3 l-493 1 -1 -45z"/>
<path d="M6850 8035 c-5 -11 -64 -159 -133 -330 -110 -274 -158 -391 -186
-460 -16 -37 -32 -79 -153 -380 -66 -165 -126 -313 -133 -330 -8 -16 -66 -160
-130 -320 -63 -159 -120 -299 -125 -310 -8 -18 -210 -518 -322 -800 -22 -55
-49 -119 -59 -142 -10 -24 -19 -46 -19 -49 0 -3 -6 -20 -14 -37 -15 -33 -252
-619 -337 -834 -27 -67 -57 -142 -67 -165 -11 -24 -29 -68 -40 -98 -11 -30
-27 -71 -35 -90 l-15 -35 536 0 536 0 13 25 c7 14 63 160 124 325 60 165 129
352 153 415 l43 115 837 0 836 0 30 -79 c17 -43 33 -90 36 -105 4 -14 9 -30
13 -36 3 -5 60 -156 126 -335 l121 -325 533 0 c293 0 534 2 536 5 2 3 -39 111
-91 240 -52 129 -145 359 -205 510 -61 151 -117 289 -124 305 -7 17 -59 145
-115 285 -56 140 -109 271 -117 290 -33 75 -41 96 -48 120 -4 14 -15 43 -25
65 -38 86 -90 214 -90 220 0 3 -11 31 -25 61 -14 30 -25 56 -25 58 0 4 -288
721 -310 774 -6 12 -14 32 -20 45 -5 12 -32 81 -61 152 -28 72 -57 144 -64
160 -7 17 -93 228 -190 470 -98 242 -192 477 -211 522 -18 46 -37 91 -43 100
-9 17 -42 18 -471 18 -454 0 -462 0 -470 -20z m551 -1530 c38 -99 92 -238 119
-310 78 -205 268 -700 296 -770 3 -7 -164 -10 -491 -10 -272 0 -495 1 -495 2
0 3 50 138 85 228 108 285 227 594 234 610 5 11 22 56 39 100 17 44 46 121 65
170 19 50 40 107 48 128 7 20 17 36 22 34 5 -1 40 -84 78 -182z"/>
</g>
</svg>
